<?xml version="1.0" encoding="iso-8859-1"?>
<!-- Generator: Adobe Illustrator 22.0.1, SVG Export Plug-In . SVG Version: 6.00 Build 0)  -->
<svg xmlns="http://www.w3.org/2000/svg" xmlns:xlink="http://www.w3.org/1999/xlink" version="1.1" id="Layer_1" x="0px" y="0px" viewBox="0 0 128 128" style="enable-background:new 0 0 128 128;" xml:space="preserve">
<path style="fill:#FFFFFF;" d="M14,108V25c0-2.761,2.239-5,5-5h90c2.761,0,5,2.239,5,5v83"/>
<line style="fill:none;stroke:#9EB9D3;stroke-width:6;stroke-linecap:round;stroke-miterlimit:10;" x1="28" y1="61" x2="35" y2="61"/>
<line style="fill:none;stroke:#9EB9D3;stroke-width:6;stroke-linecap:round;stroke-miterlimit:10;" x1="47" y1="61" x2="76" y2="61"/>
<circle style="fill:#9EB9D3;" cx="88" cy="61" r="3"/>
<circle style="fill:#9EB9D3;" cx="100" cy="61" r="3"/>
<line style="fill:none;stroke:#9EB9D3;stroke-width:6;stroke-linecap:round;stroke-miterlimit:10;" x1="28" y1="77" x2="35" y2="77"/>
<line style="fill:none;stroke:#9EB9D3;stroke-width:6;stroke-linecap:round;stroke-miterlimit:10;" x1="47" y1="77" x2="76" y2="77"/>
<circle style="fill:#9EB9D3;" cx="100" cy="77" r="3"/>
<line style="fill:none;stroke:#9EB9D3;stroke-width:6;stroke-linecap:round;stroke-miterlimit:10;" x1="28" y1="93" x2="35" y2="93"/>
<line style="fill:none;stroke:#9EB9D3;stroke-width:6;stroke-linecap:round;stroke-miterlimit:10;" x1="47" y1="93" x2="76" y2="93"/>
<circle style="fill:#9EB9D3;" cx="88" cy="93" r="3"/>
<circle style="fill:#9EB9D3;" cx="100" cy="93" r="3"/>
<path style="fill:#9EB9D3;" d="M114,43H14V25c0-2.761,2.239-5,5-5h90c2.761,0,5,2.239,5,5V43z"/>
<path style="fill:#FFFFFF;" d="M104,30H69c-1.657,0-3,1.343-3,3c0,1.657,1.343,3,3,3h35c1.657,0,3-1.343,3-3S105.657,30,104,30z"/>
<path style="fill:none;stroke:#444B54;stroke-width:6;stroke-linecap:round;stroke-miterlimit:10;" d="M14,108V25  c0-2.761,2.239-5,5-5h90c2.761,0,5,2.239,5,5v83"/>
<circle style="fill:#FFFFFF;" cx="24" cy="33" r="3"/>
<circle style="fill:#FFFFFF;" cx="34" cy="33" r="3"/>
<circle style="fill:#FFFFFF;" cx="44" cy="33" r="3"/>
</svg>
