<?xml version="1.0" encoding="utf-8"?>
<!-- Generator: Adobe Illustrator 18.0.0, SVG Export Plug-In . SVG Version: 6.00 Build 0)  -->
<!DOCTYPE svg PUBLIC "-//W3C//DTD SVG 1.1//EN" "http://www.w3.org/Graphics/SVG/1.1/DTD/svg11.dtd">
<svg version="1.1" id="Слой_1" xmlns="http://www.w3.org/2000/svg" xmlns:xlink="http://www.w3.org/1999/xlink" x="0px" y="0px"
	 viewBox="0 0 128 128" enable-background="new 0 0 128 128" xml:space="preserve">
<g>
	<g>
		<g>
			<g>
				<g>
					<g>
						<path fill="#F4F0A4" d="M25.1,110.5l-8.1-8l18.2-18c0,0,0,0,0.1,0l8.1,8L25.1,110.5C25.1,110.5,25.1,110.5,25.1,110.5z"/>
					</g>
				</g>
				<g>
					<g>
						<path fill="#454B54" d="M25.1,113.5c-0.8,0-1.5-0.3-2.1-0.9l-8.1-8c-0.6-0.6-0.9-1.3-0.9-2.1s0.3-1.6,0.9-2.1l18.2-18
							c1.1-1.1,3.1-1.1,4.2,0l8.1,8c0.6,0.6,0.9,1.3,0.9,2.1S46,94,45.5,94.6l-18.2,18C26.7,113.2,25.9,113.5,25.1,113.5z
							 M21.3,102.5l3.8,3.8l14-13.8l-3.8-3.8L21.3,102.5z"/>
					</g>
				</g>
				<g>
					<g>
						<g>
							<path fill="#FFFFFF" d="M111,55.3c0-20.9-17.1-37.8-38.2-37.8S34.6,34.4,34.6,55.3S51.7,93,72.8,93S111,76.1,111,55.3z
								 M44.2,55.3C44.2,39.6,57,27,72.8,27c15.8,0,28.6,12.7,28.6,28.3S88.6,83.6,72.8,83.6C57,83.6,44.2,70.9,44.2,55.3z"/>
						</g>
					</g>
				</g>
				<g>
					<g>
						<g>
							<path fill="#C7D7E2" d="M72.8,83.9c-15.6,0-28.3-12.8-28.3-28.6c0-15.8,12.7-28.6,28.3-28.6s28.3,12.8,28.3,28.6
								C101.1,71.1,88.5,83.9,72.8,83.9z"/>
						</g>
					</g>
				</g>
				<g>
					<g>
						<g>
							<path fill="#454B54" d="M72.8,96c-22.7,0-41.2-18.3-41.2-40.8c0-22.5,18.5-40.8,41.2-40.8S114,32.8,114,55.3
								C114,77.8,95.5,96,72.8,96z M72.8,20.5c-19.4,0-35.2,15.6-35.2,34.8S53.4,90,72.8,90S108,74.5,108,55.3S92.2,20.5,72.8,20.5z
								"/>
						</g>
					</g>
				</g>
			</g>
			<g>
				<g>
					<path fill="#454B54" d="M36.7,88.4c0-0.7,0.3-1.3,0.8-1.9l6.5-6.4c1-1,2.7-1,3.7,0c1,1,1,2.7,0,3.7l-6.5,6.4c-1,1-2.7,1-3.7,0
						C36.9,89.8,36.7,89.1,36.7,88.4z"/>
				</g>
			</g>
			<g>
				<g>
					<path fill="#FFFFFF" d="M54.1,51.2c-0.3,0-0.6,0-0.9-0.2c-1.4-0.5-2.1-2-1.6-3.4c3.2-9,11.7-15.1,21.2-15.1
						c1.4,0,2.6,1.2,2.6,2.6s-1.2,2.6-2.6,2.6c-7.3,0-13.8,4.6-16.2,11.6C56.2,50.5,55.2,51.2,54.1,51.2z"/>
				</g>
			</g>
			<g>
				<g>
					<path fill="#FFFFFF" d="M53,57.9c-1.4,0-2.6-1.2-2.6-2.6l0-0.4c0-1.4,1.2-2.6,2.6-2.6c0,0,0,0,0.1,0c1.4,0,2.6,1.2,2.6,2.7
						l0,0.3C55.6,56.7,54.4,57.9,53,57.9z"/>
				</g>
			</g>
		</g>
	</g>
</g>
</svg>
