<?xml version="1.0" encoding="utf-8"?>
<!-- Generator: Adobe Illustrator 21.1.0, SVG Export Plug-In . SVG Version: 6.00 Build 0)  -->
<svg version="1.1" id="Layer_1" xmlns="http://www.w3.org/2000/svg" xmlns:xlink="http://www.w3.org/1999/xlink" x="0px" y="0px" viewBox="0 0 128 128" style="enable-background:new 0 0 128 128;" xml:space="preserve">

<g>
	<g>
		<path d="M85.6,124H42.4c-5.3,0-9.7-4.1-10-9.4L28,44h72l-4.4,70.6C95.3,119.9,90.9,124,85.6,124z" style="fill:#FFFFFF;"/>
	</g>
	<g>
		<g>
			<path d="M40.2,43.8c0,0.1,0,0.2,0.1,0.2H97c0.6-0.8,1-1.9,1-3c0-2.8-2.2-5-5-5c-0.3,0-0.7,0-1,0.1c0,0,0-0.1,0-0.1
				c0-2.8-2.2-5-5-5c-0.2,0-0.3,0-0.4,0c-1.3-4.1-5.1-7-9.6-7c-0.4,0-0.9,0-1.3,0.1c-1.7-3-5-5.1-8.7-5.1c-3.1,0-5.8,1.4-7.7,3.6
				C58.6,22.2,57.8,22,57,22c-1.9,0-3.6,1.1-4.4,2.7c-0.5-0.1-1.1-0.2-1.6-0.2c-3.6,0-6.5,2.5-7.3,5.8C43.2,30.1,42.6,30,42,30
				c-2.8,0-5,2.2-5,5c0,0.4,0.1,0.8,0.1,1.1C36.8,36.1,36.4,36,36,36c-2.8,0-5,2.2-5,5c0,1.1,0.4,2.2,1,3h8
				C40,43.9,40.1,43.8,40.2,43.8z" style="fill:#FFFFFF;"/>
		</g>
	</g>
	<g>
		<g>
			<path d="M56,44c-4.4,0-8-3.6-8-8c0-1.7,1.3-3,3-3s3,1.3,3,3c0,1.1,0.9,2,2,2c1.7,0,3,1.3,3,3S57.7,44,56,44z" style="fill:#F2B630;"/>
		</g>
	</g>
	<g>
		<g>
			<path d="M65,38c-1.7,0-3-1.3-3-3s1.3-3,3-3c1.1,0,2-0.9,2-2c0-1.7,1.3-3,3-3s3,1.3,3,3C73,34.4,69.4,38,65,38z" style="fill:#F2B630;"/>
		</g>
	</g>
	<g>
		<g>
			<path d="M85,45c-1.7,0-3-1.3-3-3c0-1.1-0.9-2-2-2c-1.7,0-3-1.3-3-3s1.3-3,3-3c4.4,0,8,3.6,8,8
				C88,43.7,86.7,45,85,45z" style="fill:#F2B630;"/>
		</g>
	</g>
	<g>
		<path d="M85.6,124H49V44h51l-4.4,70.6C95.3,119.9,90.9,124,85.6,124z" style="fill:#FF5576;"/>
	</g>
	<g>
		<path d="M85.6,124H56c-2.8,0-5-2.2-5-5v0c0-2.8,2.2-5,5-5h9c11,0,20-9,20-20V44h15l-4.4,70.6
			C95.3,119.9,90.9,124,85.6,124z" style="fill:#DB3E64;"/>
	</g>
	<g>
		<g>
			<path d="M58,127c-1.7,0-3-1.3-3-3V44c0-1.7,1.3-3,3-3s3,1.3,3,3v80C61,125.7,59.7,127,58,127z" style="fill:#FFFFFF;"/>
		</g>
	</g>
	<g>
		<g>
			<path d="M70,127c-1.7,0-3-1.3-3-3V44c0-1.7,1.3-3,3-3s3,1.3,3,3v80C73,125.7,71.7,127,70,127z" style="fill:#FFFFFF;"/>
		</g>
	</g>
	<g>
		<g>
			<path d="M82,127c-1.7,0-3-1.3-3-3V44c0-1.7,1.3-3,3-3s3,1.3,3,3v80C85,125.7,83.7,127,82,127z" style="fill:#FFFFFF;"/>
		</g>
	</g>
	<path d="M105.6,121h-9.1c1.2-1.8,1.9-3.9,2-6.2l3.8-60.6c0.1-1.7-1.2-3.1-2.8-3.2c-1.6-0.1-3.1,1.2-3.2,2.8l-3.8,60.6
		c-0.2,3.7-3.3,6.6-7,6.6H42.4c-3.7,0-6.8-2.9-7-6.6l-3.8-60.6c-0.1-1.7-1.5-2.9-3.2-2.8c-1.7,0.1-2.9,1.5-2.8,3.2l3.8,60.6
		c0.4,6.8,6.1,12.2,13,12.2h43.2h20c1.7,0,3-1.3,3-3S107.3,121,105.6,121z" style="fill:#444B54;"/>
	<g>
		<path d="M100,47H52c-1.7,0-3-1.3-3-3s1.3-3,3-3h48c1.7,0,3,1.3,3,3S101.7,47,100,47z" style="fill:#444B54;"/>
	</g>
	<g>
		<path d="M37,47h-9c-1.7,0-3-1.3-3-3s1.3-3,3-3h9c1.7,0,3,1.3,3,3S38.7,47,37,47z" style="fill:#444B54;"/>
	</g>
	<g>
		<circle cx="64" cy="84" r="25" style="fill:#FFFFFF;"/>
	</g>
	<g>
		<path d="M64,103c-10.5,0-19-8.5-19-19s8.5-19,19-19s19,8.5,19,19S74.5,103,64,103z" style="fill:#FFF0B3;"/>
	</g>
	<g>
		<path d="M83,84c0-10.5-8.5-19-19-19v38C74.5,103,83,94.5,83,84z" style="fill:#F2B630;"/>
	</g>
	<g>
		<path d="M34.1,39.1c-0.2,0-0.5,0-0.7-0.1c-1.9-0.4-2.6-2.1-2.4-3.5c0.2-1.4,1.5-2.7,3.4-2.5c1.9,0.2,2.8,1.8,2.8,3.2
			S36.1,39.1,34.1,39.1z" style="fill:#444B54;"/>
	</g>
	<g>
		<path d="M43.7,33.3c-0.2,0-0.4,0-0.7-0.1c-1.6-0.4-2.6-2-2.2-3.6c1.1-4.8,5.3-8.1,10.2-8.1c1.7,0,3,1.3,3,3
			s-1.3,3-3,3c-2.1,0-3.9,1.5-4.4,3.5C46.3,32.4,45.1,33.3,43.7,33.3z" style="fill:#444B54;"/>
	</g>
	<g>
		<path d="M75.7,27.1c-1,0-2.1-0.5-2.6-1.5C71.8,23.4,69.5,22,67,22c-2.1,0-4,0.9-5.4,2.5c-1.1,1.3-3,1.4-4.2,0.4
			c-1.3-1.1-1.4-3-0.4-4.2c2.5-3,6.1-4.7,10-4.7c4.7,0,9,2.5,11.3,6.6c0.8,1.4,0.3,3.3-1.1,4.1C76.7,27,76.2,27.1,75.7,27.1z" style="fill:#444B54;"/>
	</g>
	<g>
		<path d="M92,39.1C92,39.1,92,39.1,92,39.1c-1.7,0-3-1.4-3-3c0,0,0-0.1,0-0.2c-0.1-1-0.9-1.8-1.9-1.9
			c-0.1,0-0.2,0-0.3,0c-1.6,0.1-3.1-1.1-3.3-2.7c-0.1-1.7,1.1-3.1,2.7-3.3c0.2,0,0.5-0.1,0.7-0.1c4.4,0,8,3.6,8,8c0,0.1,0,0.2,0,0.4
			C94.8,37.9,93.6,39.1,92,39.1z M95,36.2L95,36.2L95,36.2z M95,36.2C95,36.2,95,36.2,95,36.2C95,36.2,95,36.2,95,36.2z M95,36.2
			C95,36.2,95,36.2,95,36.2C95,36.2,95,36.2,95,36.2z M95,36.1C95,36.2,95,36.2,95,36.1C95,36.2,95,36.2,95,36.1z M95,36.1
			C95,36.1,95,36.1,95,36.1C95,36.1,95,36.1,95,36.1z" style="fill:#444B54;"/>
	</g>
</g>
<g>
	<circle cx="121" cy="124" r="3" style="fill:#444B54;"/>
</g>
</svg>
