<?xml version="1.0" encoding="utf-8"?>
<!-- Generator: Adobe Illustrator 21.1.0, SVG Export Plug-In . SVG Version: 6.00 Build 0)  -->
<svg version="1.1" id="Layer_1" xmlns="http://www.w3.org/2000/svg" xmlns:xlink="http://www.w3.org/1999/xlink" x="0px" y="0px" viewBox="0 0 128 128" style="enable-background:new 0 0 128 128;" xml:space="preserve">

<g>
	<g>
		<path d="M87.7,58.3H32.3C17.2,58.3,5,70.5,5,85.6c0,15.1,12.2,27.3,27.3,27.3c8.9,0,16.8-4.3,21.8-10.9h11.8
			c5,6.6,12.9,10.9,21.8,10.9c15.1,0,27.3-12.2,27.3-27.3C115,70.5,102.8,58.3,87.7,58.3z" style="fill:#FFFFFF;"/>
	</g>
	<g>
		<path d="M93.7,119.3c-9.1,0-17.5-4-23.3-10.9h-8.9c-5.8,7-14.2,10.9-23.3,10.9C21.6,119.3,8,105.7,8,89
			s13.6-30.3,30.3-30.3h55.5c16.7,0,30.3,13.6,30.3,30.3S110.4,119.3,93.7,119.3z" style="fill:#6E6E8E;"/>
	</g>
	<g>
		<path d="M87.7,58.3H32.3C17.2,58.3,5,70.5,5,85.6c0,15.1,12.2,27.3,27.3,27.3c8.9,0,16.8-4.3,21.8-10.9h11.8
			c5,6.6,12.9,10.9,21.8,10.9c15.1,0,27.3-12.2,27.3-27.3C115,70.5,102.8,58.3,87.7,58.3z" style="fill:#FFFFFF;"/>
	</g>
	<g>
		<path d="M32.3,116.3c-8.2,0-15.9-3.3-21.7-9.2c-5.7-5.9-8.8-13.7-8.6-22c0.4-16.2,14.3-29.4,30.8-29.4H45
			c1.7,0,3,1.3,3,3s-1.3,3-3,3H32.8C19.5,61.7,8.4,72.3,8,85.3c-0.2,6.6,2.3,12.9,6.9,17.6c4.6,4.7,10.8,7.3,17.4,7.3
			c7.7,0,14.8-3.5,19.4-9.7c0.6-0.8,1.5-1.2,2.4-1.2h11.8c0.9,0,1.8,0.4,2.4,1.2c5.1,6.8,13.2,10.4,21.7,9.6
			c11.4-1.1,20.5-10,21.8-21.4c0.8-7-1.4-13.8-6-19c-4.6-5.1-11.2-8.1-18.1-8.1H63c-3.3,0-6-2.7-6-6v-7c0-3.9-3.1-7-7-7H30
			c-7.2,0-13-5.8-13-13c0-7.2,5.8-13,13-13h50c3.9,0,7-3.1,7-7c0-1.7,1.3-3,3-3s3,1.3,3,3c0,7.2-5.8,13-13,13H30c-3.9,0-7,3.1-7,7
			s3.1,7,7,7h20c7.2,0,13,5.8,13,13v7h24.7c8.6,0,16.8,3.7,22.6,10.1c5.7,6.4,8.5,15,7.5,23.6c-1.6,14.2-13,25.4-27.2,26.7
			c-10.1,0.9-19.7-3.1-26.1-10.8h-8.9C49.8,112.3,41.4,116.3,32.3,116.3z" style="fill:#444B54;"/>
	</g>
	<g>
		<polygon points="39.4,83.5 34.5,83.5 34.5,78.6 29.5,78.6 29.5,83.5 24.6,83.5 24.6,88.5 29.5,88.5 29.5,93.4 
			34.5,93.4 34.5,88.5 39.4,88.5 		" style="fill:#FF5576;"/>
	</g>
	<g>
		<circle cx="78.3" cy="85.4" r="3" style="fill:#FF5576;"/>
	</g>
	<g>
		<circle cx="87.3" cy="76.4" r="3" style="fill:#FF5576;"/>
	</g>
	<g>
		<circle cx="97.3" cy="86.4" r="3" style="fill:#FF5576;"/>
	</g>
	<g>
		<circle cx="88.3" cy="95.4" r="3" style="fill:#FF5576;"/>
	</g>
	<g>
		<circle cx="55.1" cy="90.4" r="3" style="fill:#444B54;"/>
	</g>
	<g>
		<circle cx="64.1" cy="90.4" r="3" style="fill:#444B54;"/>
	</g>
</g>
</svg>
