<?xml version="1.0" encoding="utf-8"?>
<!-- Generator: Adobe Illustrator 21.1.0, SVG Export Plug-In . SVG Version: 6.00 Build 0)  -->
<svg version="1.1" id="Layer_1" xmlns="http://www.w3.org/2000/svg" xmlns:xlink="http://www.w3.org/1999/xlink" x="0px" y="0px" viewBox="0 0 128 128" style="enable-background:new 0 0 128 128;" xml:space="preserve">

<g>
	<g>
		<path d="M99,43c11,0,20,9,20,20s-9,20-20,20H29C18,83,9,74,9,63s9-20,20-20h5v-5C34,21.4,47.4,8,64,8s30,13.4,30,30v5
			H99z" style="fill:#FFFFFF;"/>
	</g>
	<g>
		<circle cx="64" cy="114" r="10" style="fill:#FFFFFF;"/>
	</g>
	<g>
		<g>
			<path d="M64,107c-1.7,0-3-1.3-3-3v-8c0-1.7,1.3-3,3-3c1.7,0,3,1.3,3,3v8C67,105.7,65.7,107,64,107z" style="fill:#71C2FF;"/>
		</g>
		<g>
			<path d="M64,127c-7.2,0-13-5.8-13-13s5.8-13,13-13c7.2,0,13,5.8,13,13S71.2,127,64,127z M64,107c-3.9,0-7,3.1-7,7
				s3.1,7,7,7c3.9,0,7-3.1,7-7S67.9,107,64,107z" style="fill:#71C2FF;"/>
		</g>
		<g>
			<path d="M114,117H74c-1.7,0-3-1.3-3-3s1.3-3,3-3h40c1.7,0,3,1.3,3,3S115.7,117,114,117z" style="fill:#71C2FF;"/>
		</g>
		<g>
			<path d="M54,117H29c-1.7,0-3-1.3-3-3s1.3-3,3-3h25c1.7,0,3,1.3,3,3S55.7,117,54,117z" style="fill:#71C2FF;"/>
		</g>
		<g>
			<path d="M14,117c-0.8,0-1.6-0.3-2.1-0.9c-0.1-0.1-0.3-0.3-0.4-0.4c-0.1-0.2-0.2-0.3-0.3-0.5
				c-0.1-0.2-0.1-0.4-0.2-0.6c0-0.2-0.1-0.4-0.1-0.6c0-0.8,0.3-1.6,0.9-2.1c0.1-0.1,0.3-0.3,0.4-0.4c0.2-0.1,0.3-0.2,0.5-0.3
				c0.2-0.1,0.4-0.1,0.6-0.2c0.4-0.1,0.8-0.1,1.2,0c0.2,0,0.4,0.1,0.6,0.2c0.2,0.1,0.4,0.2,0.5,0.3c0.2,0.1,0.3,0.2,0.4,0.4
				c0.6,0.6,0.9,1.3,0.9,2.1c0,0.2,0,0.4-0.1,0.6c0,0.2-0.1,0.4-0.2,0.6c-0.1,0.2-0.2,0.4-0.3,0.5c-0.1,0.2-0.2,0.3-0.4,0.4
				C15.6,116.7,14.8,117,14,117z" style="fill:#71C2FF;"/>
		</g>
	</g>
	<g>
		<path d="M99,86H29C16.3,86,6,75.7,6,63s10.3-23,23-23h2v-2C31,19.8,45.8,5,64,5s33,14.8,33,33v2h2
			c12.7,0,23,10.3,23,23S111.7,86,99,86z M29,46c-9.4,0-17,7.6-17,17s7.6,17,17,17h70c9.4,0,17-7.6,17-17s-7.6-17-17-17h-5
			c-1.7,0-3-1.3-3-3v-5c0-14.9-12.1-27-27-27S37,23.1,37,38v5c0,1.7-1.3,3-3,3H29z" style="fill:#444B54;"/>
	</g>
</g>
</svg>
