<?xml version="1.0" encoding="utf-8"?>
<!-- Generator: Adobe Illustrator 21.1.0, SVG Export Plug-In . SVG Version: 6.00 Build 0)  -->
<svg version="1.1" id="Layer_1" xmlns="http://www.w3.org/2000/svg" xmlns:xlink="http://www.w3.org/1999/xlink" x="0px" y="0px" viewBox="0 0 128 128" style="enable-background:new 0 0 128 128;" xml:space="preserve">

<g>
	<g>
		<g>
			<path d="M48,42H32c-5.5,0-10,4.5-10,10v22c0,3.7,2.6,6.8,6,7.7V114c0,3.3,2.7,6,6,6s8.7,0,12,0s6-2.7,6-6V82h6V52
				C58,46.5,53.5,42,48,42z" style="fill:#C1D2E5;"/>
			<circle cx="40" cy="26" r="10" style="fill:#C1D2E5;"/>
		</g>
		<g>
			<path d="M96,42H80c-5.5,0-10,4.5-10,10v22c0,3.7,2.6,6.8,6,7.7l0,32c0,3.3,2.5,6.2,5.8,6.2c3.4,0.1,9,0.1,12.4,0
				c3.3-0.1,5.8-3,5.8-6.2l0-31.7h0c3.3,0,6-2.7,6-6V52C106,46.5,101.5,42,96,42z" style="fill:#C1D2E5;"/>
			<circle cx="88" cy="26" r="10" style="fill:#C1D2E5;"/>
		</g>
		<path d="M70,120L70,120c-3.3,0-6-2.7-6-6V72h12v42C76,117.3,73.3,120,70,120z" style="fill:#FFFFFF;"/>
		<path d="M72,42H56c-5.5,0-10,4.5-10,10v30h0c3.3,0,6,2.7,6,6l0,25.7c0,3.3,2.5,6.2,5.8,6.2c3.4,0.1,6.2-2.6,6.2-6V82
			h12h6V52C82,46.5,77.5,42,72,42z" style="fill:#FFFFFF;"/>
		<g>
			<path d="M70,123c-5,0-9-4-9-9V82c0-1.7,1.3-3,3-3s3,1.3,3,3v32c0,1.7,1.3,3,3,3s3-1.3,3-3V82c0-1.7,1.3-3,3-3h3V52
				c0-3.9-3.1-7-7-7H56c-3.9,0-7,3.1-7,7v30c0,1.7-1.3,3-3,3s-3-1.3-3-3V52c0-7.2,5.8-13,13-13h16c7.2,0,13,5.8,13,13v30
				c0,1.7-1.3,3-3,3h-3v29C79,119,75,123,70,123z" style="fill:#444B54;"/>
		</g>
		<circle cx="64" cy="22" r="10" style="fill:#FFFFFF;"/>
		<g>
			<path d="M64,35c-7.2,0-13-5.8-13-13S56.8,9,64,9s13,5.8,13,13S71.2,35,64,35z M64,15c-3.9,0-7,3.1-7,7s3.1,7,7,7
				s7-3.1,7-7S67.9,15,64,15z" style="fill:#444B54;"/>
		</g>
		<g>
			<path d="M58,123c-5,0-9-4-9-9V88c0-1.7,1.3-3,3-3s3,1.3,3,3v26c0,1.7,1.3,3,3,3s3-1.3,3-3c0-1.7,1.3-3,3-3s3,1.3,3,3
				C67,119,63,123,58,123z" style="fill:#444B54;"/>
		</g>
	</g>
</g>
</svg>
