<?xml version="1.0" encoding="utf-8"?>
<!-- Generator: Adobe Illustrator 21.1.0, SVG Export Plug-In . SVG Version: 6.00 Build 0)  -->
<svg version="1.1" id="Layer_1" xmlns="http://www.w3.org/2000/svg" xmlns:xlink="http://www.w3.org/1999/xlink" x="0px" y="0px" viewBox="0 0 128 128" style="enable-background:new 0 0 128 128;" xml:space="preserve">

<g>
	<g>
		<g>
			<g>
				<path d="M68.4,106C62,94.8,49.9,87.2,36,87.2h0c-13.9,0-26,7.6-32.4,18.9l0.1,3h64.6L68.4,106z" style="fill:#FFFFFF;"/>
			</g>
			<g>
				<circle cx="36" cy="57.5" r="17.5" style="fill:#FFFFFF;"/>
			</g>
			<g>
				<path d="M36,77.9c-11.3,0-20.5-9.2-20.5-20.5c0-10.7,8.4-19.7,19.1-20.4c1.7-0.1,3.1,1.1,3.2,2.8
					c0.1,1.7-1.1,3.1-2.8,3.2c-7.6,0.5-13.5,6.8-13.5,14.4c0,8,6.5,14.5,14.5,14.5c2.6,0,5.2-0.7,7.4-2c1.4-0.8,3.3-0.4,4.1,1
					c0.8,1.4,0.4,3.3-1,4.1C43.3,76.9,39.7,77.9,36,77.9z" style="fill:#71C2FF;"/>
			</g>
			<g>
				<path d="M3.6,109c-0.5,0-1-0.1-1.5-0.4c-1.4-0.8-1.9-2.6-1.1-4.1c5.2-9.2,14-16.1,24.2-18.9
					c1.6-0.4,3.3,0.5,3.7,2.1s-0.5,3.3-2.1,3.7c-8.6,2.4-16.1,8.3-20.6,16.1C5.7,108.5,4.7,109,3.6,109z" style="fill:#71C2FF;"/>
			</g>
		</g>
		<g>
			<g>
				<path d="M59.6,106C66,94.8,78.1,87.2,92,87.2h0c13.9,0,26,7.6,32.4,18.9l-0.1,3H59.7L59.6,106z" style="fill:#FFFFFF;"/>
			</g>
			<g>
				<circle cx="92" cy="57.5" r="17.5" style="fill:#FFFFFF;"/>
			</g>
			<g>
				<path d="M92,77.9c-3.7,0-7.3-1-10.4-2.9c-1.4-0.8-1.9-2.7-1-4.1c0.8-1.4,2.7-1.9,4.1-1c2.2,1.3,4.8,2,7.4,2
					c8,0,14.5-6.5,14.5-14.5c0-7.6-5.9-13.9-13.5-14.4c-1.7-0.1-2.9-1.5-2.8-3.2c0.1-1.7,1.5-2.9,3.2-2.8
					c10.7,0.7,19.1,9.7,19.1,20.4C112.5,68.8,103.3,77.9,92,77.9z" style="fill:#71C2FF;"/>
			</g>
			<g>
				<path d="M124.4,109c-1,0-2.1-0.5-2.6-1.5c-4.4-7.8-11.9-13.7-20.6-16.1c-1.6-0.4-2.5-2.1-2.1-3.7
					c0.4-1.6,2.1-2.5,3.7-2.1c10.1,2.8,18.9,9.7,24.2,18.9c0.8,1.4,0.3,3.3-1.1,4.1C125.4,108.9,124.9,109,124.4,109z" style="fill:#71C2FF;"/>
			</g>
		</g>
	</g>
	<g>
		<g>
			<path d="M101.1,105.6C93.7,92.7,79.9,84,64,84h0c-15.9,0-29.7,8.7-37.1,21.6L27,109h74L101.1,105.6z" style="fill:#FFFFFF;"/>
		</g>
		<g>
			<circle cx="64" cy="50" r="20" style="fill:#FFFFFF;"/>
		</g>
		<g>
			<path d="M64,73c-12.7,0-23-10.3-23-23s10.3-23,23-23s23,10.3,23,23S76.7,73,64,73z M64,33c-9.4,0-17,7.6-17,17
				s7.6,17,17,17c9.4,0,17-7.6,17-17S73.4,33,64,33z" style="fill:#444B54;"/>
		</g>
		<g>
			<path d="M26.9,109c-0.5,0-1-0.1-1.5-0.4c-1.4-0.8-1.9-2.6-1.1-4.1C32.4,90.3,47.6,81.4,64,81.4
				c16.4,0,31.6,8.9,39.7,23.1c0.8,1.4,0.3,3.3-1.1,4.1s-3.3,0.3-4.1-1.1c-7-12.4-20.2-20.1-34.5-20.1c-14.2,0-27.4,7.7-34.5,20.1
				C29,108.5,28,109,26.9,109z" style="fill:#444B54;"/>
		</g>
	</g>
</g>
</svg>
