<svg enable-background="new 0 0 439.2 164.9" viewBox="0 0 439.2 164.9" xmlns="http://www.w3.org/2000/svg"><path d="m1.8 1.8h435.6v161.3h-435.6z" fill="none" stroke="#1d1d1b" stroke-miterlimit="10" stroke-width="3.6369"/><g fill="#1d1d1b"><path d="m68.1 80c-2.1 1.2-4.2 1.2-9.1 1h-12.8v-38.7h10.8c5.4 0 7 .1 9.1.8 4.4 1.4 7.3 4.8 7.3 8.9 0 4.4-3.7 7.6-7.8 8.4 5.2.7 9.7 4.2 9.7 9.8 0 4.2-3.3 7.5-7.2 9.8zm-9.6-32.7h-6.5v11.1h7.2c3.9 0 7.8-.9 7.8-5.5 0-4.8-4.7-5.6-8.5-5.6zm.9 16h-7.4v12.8h7.3c4.4 0 9.7-.7 9.7-6.3s-5.2-6.5-9.6-6.5z" stroke="#1d1d1b" stroke-miterlimit="10" stroke-width=".4043"/><path d="m97.2 81v-38.7h24.1l-.8 4.9h-17.4v11.1h14.6v4.9h-14.5v12.6h18.8v5.2z" stroke="#1d1d1b" stroke-miterlimit="10" stroke-width=".4043"/><path d="m162.4 81c-.9-1.7-2.3-3.9-3.5-5.8-2.9-4.4-5.2-7.2-7.4-9.2-1.5-1.3-2.7-1.8-4.4-2v17h-5.9v-38.7h10.4c6.4 0 8.9.6 11.1 2 2.8 1.8 4.7 5 4.7 8.7 0 6.8-4.3 10.9-11.7 10.9.7.4 1.5 1.1 2 1.7 1.2 1.5 3.7 4.4 5.8 7.3 2.3 3.1 6.2 8.1 6.2 8.1zm-10.6-33.9h-4.7v12.7h4c4.9 0 10.2-.4 10.2-6.6 0-5.3-5.4-6.1-9.5-6.1z" stroke="#1d1d1b" stroke-miterlimit="10" stroke-width=".4043"/><path d="m190.2 81v-38.7h6v38.7zm22 0-16-20.7 15.9-18h7.6l-16.8 18 17 20.7z" stroke="#1d1d1b" stroke-miterlimit="10" stroke-width=".4043"/><path d="m237.8 81v-38.7h24.1l-.8 4.9h-17.4v11.1h14.6v4.9h-14.5v12.6h18.8v5.2z" stroke="#1d1d1b" stroke-miterlimit="10" stroke-width=".4043"/><path d="m305.3 81h-22v-38.7h5.9v33.7h17z" stroke="#1d1d1b" stroke-miterlimit="10" stroke-width=".4043"/><path d="m323.6 81v-38.7h24.1l-.8 4.9h-17.4v11.1h14.5v4.9h-14.5v12.6h18.8v5.2z" stroke="#1d1d1b" stroke-miterlimit="10" stroke-width=".4043"/><path d="m381.1 65.5v15.5h-6.1v-15.6l-14-23.1h7.3l7.7 13.7c.9 1.5 1.9 4.1 2.3 5.1.4-.9 1.2-3.2 2.3-5l7.9-13.8h6.8z" stroke="#1d1d1b" stroke-miterlimit="10" stroke-width=".4043"/><path d="m58.2 118.1h1.9v3.4c-1 .6-2.8 1.3-5.3 1.3-5.4 0-8-3.1-8-8.3s2.5-8.5 7.9-8.5c2.6 0 4.3.7 5.3 1.3v3.4h-1.9c-.4-2.2-1.3-3.3-3.8-3.3-3.3 0-4.6 2.7-4.6 6.9s1.4 7.2 4.7 7.2c2.5-.1 3.4-1.2 3.8-3.4z"/><path d="m71.8 114.4c0-5.2 2.8-8.4 7.4-8.4s7.4 3.2 7.4 8.4c0 5.3-2.8 8.4-7.4 8.4s-7.4-3.1-7.4-8.4zm2.9-.3c0 4.7 1.5 7.3 4.5 7.3 3.1 0 4.5-2.5 4.5-7.3 0-3.8-1.2-6.6-4.5-6.6-3.4.1-4.5 2.9-4.5 6.6z"/><path d="m117.3 107.4c-1.3.1-1.8.4-1.9 1.2v.6l.9 10c.1 1.8 1 2.2 2.3 2.3v1h-7v-1c1.3-.1 2-.3 2-1.7 0-.1 0-.3 0-.5l-.6-7.3c-.1-.8-.1-1.5-.1-2.1v-1.3h-.2c-.1.9-.4 2-.8 3.3l-3.4 10.6h-2l-3.3-10.5c-.3-1-.6-2.8-.8-3.4h-.2c0 .6-.1 2.1-.1 3.3l-.6 7.3c-.2 1.8.4 2.2 2 2.2v1h-5.9v-1c1.3-.1 2-.3 2.2-2.2l.8-10.1c0-.2 0-.4 0-.5 0-.9-.5-1.2-1.9-1.3v-1h5.5l2.8 9.6c.5 1.7.8 3 .9 3.7h.2c.1-.7.3-2 .8-3.7l2.9-9.6h5.4v1.1z"/><path d="m148.5 107.4c-1.3.1-1.8.4-1.9 1.2v.6l.9 10c.1 1.8 1 2.2 2.3 2.3v1h-7v-1c1.3-.1 2-.3 2-1.7 0-.1 0-.3 0-.5l-.6-7.3c-.1-.8-.1-1.5-.1-2.1v-1.3h-.1c-.1.9-.4 2-.8 3.3l-3.4 10.6h-2l-3.3-10.5c-.3-1-.6-2.8-.7-3.4h-.2c0 .6-.1 2.1-.1 3.3l-.6 7.3c-.2 1.8.4 2.2 2 2.2v1h-5.9v-1c1.3-.1 2-.3 2.2-2.2l.8-10.1c0-.2 0-.4 0-.5 0-.9-.5-1.2-1.9-1.3v-1h5.5l2.8 9.6c.5 1.7.8 3 .9 3.7h.2c.1-.7.3-2 .8-3.7l2.9-9.6h5.4v1.1z"/><path d="m174.7 116.3c0 4.7-2 6.5-5.9 6.5-4.7 0-6.3-1.8-6.3-6.2v-6.9c0-1.7-.3-2.2-2.3-2.3v-1h7.3v1c-2 .1-2.3.6-2.3 2.3v6.2c0 2.7.1 5.3 3.6 5.3 3.1 0 3.9-1.6 3.9-5.2v-6.3c0-1.7-.3-2.2-2.3-2.3v-1h6.5v1c-2 .1-2.3.6-2.3 2.3v6.6z"/><path d="m202.4 122.4h-2l-5.9-8.7c-1.6-2.3-2.1-3.6-2.4-4.4h-.1c.1 1.1.4 2.8.4 5.5v4.3c0 1.7.3 2.2 2.3 2.3v1h-6.7v-1c2-.1 2.3-.6 2.3-2.3v-9.5c0-1.7-.3-2.2-2.3-2.3v-1h4.8l6 9.1c1.1 1.7 1.6 2.9 1.9 3.6h.2c-.1-.5-.4-2.6-.4-6.2v-3.1c0-1.7-.3-2.2-2.3-2.3v-1h6.5v1c-2 .1-2.3.6-2.3 2.3z"/><path d="m217.9 109.7c0-1.7-.3-2.2-2.3-2.3v-1h7.3v1c-2 .1-2.3.6-2.3 2.3v9.5c0 1.7.3 2.2 2.3 2.3v1h-7.3v-1c2-.1 2.3-.6 2.3-2.3z"/><path d="m246.1 118.1h1.9v3.4c-1 .6-2.8 1.3-5.3 1.3-5.4 0-8-3.1-8-8.3s2.5-8.5 7.9-8.5c2.6 0 4.3.7 5.3 1.3v3.4h-1.9c-.4-2.2-1.3-3.3-3.8-3.3-3.3 0-4.6 2.7-4.6 6.9s1.4 7.2 4.7 7.2c2.5-.1 3.4-1.2 3.8-3.4z"/><path d="m267.6 106.3 5 13.1c.6 1.6 1 2 2.2 2.1v.9h-6.7v-.9c1.4-.1 1.9-.3 1.9-.9 0-.2-.1-.5-.2-.9l-.9-2.3h-5.8l-.8 2.3c-.1.4-.2.7-.2.9 0 .6.4.8 1.9.9v.9h-5.7v-.9c1.2-.2 1.6-.5 2.2-2.1l4.9-13.1zm-3.8 9.8h4.7l-1.3-3.6c-.6-1.7-.9-2.9-1-3.3h-.1c-.2.9-.4 1.6-1 3.4z"/><path d="m293.1 119.1c0 1.7.3 2.2 2.3 2.3v1h-7.3v-1c2-.1 2.3-.6 2.3-2.3v-11.4h-1.7c-1.7 0-2.2.8-2.7 3.3h-1.3l.2-4.7h13.8l.2 4.7h-1.3c-.5-2.5-1-3.3-2.7-3.3h-1.7v11.4z"/><path d="m311.8 109.7c0-1.7-.3-2.2-2.3-2.3v-1h7.3v1c-2 .1-2.3.6-2.3 2.3v9.5c0 1.7.3 2.2 2.3 2.3v1h-7.3v-1c2-.1 2.3-.6 2.3-2.3z"/><path d="m328.6 114.4c0-5.2 2.8-8.4 7.4-8.4s7.4 3.2 7.4 8.4c0 5.3-2.8 8.4-7.4 8.4s-7.4-3.1-7.4-8.4zm2.9-.3c0 4.7 1.5 7.3 4.5 7.3 3.2 0 4.5-2.5 4.5-7.3 0-3.8-1.2-6.6-4.5-6.6-3.4.1-4.5 2.9-4.5 6.6z"/><path d="m369.4 122.4h-2l-5.9-8.7c-1.6-2.3-2.1-3.6-2.4-4.4h-.2c.2 1.1.4 2.8.4 5.5v4.3c0 1.7.3 2.2 2.3 2.3v1h-6.6v-1c2-.1 2.3-.6 2.3-2.3v-9.5c0-1.7-.3-2.2-2.3-2.3v-1h4.8l6 9.1c1.1 1.7 1.6 2.9 1.9 3.6h.2c-.1-.5-.4-2.6-.4-6.2v-3.1c0-1.7-.3-2.2-2.3-2.3v-1h6.5v1c-2 .1-2.3.6-2.3 2.3z"/><path d="m382.8 121.4v-3.2h2c.2 2.2 1.1 3.2 3.5 3.2 1.9 0 3.5-.9 3.5-3 0-1.8-1-2.4-2.8-2.9l-1.9-.5c-2.4-.6-4.1-1.9-4.1-4.5 0-3.1 2.6-4.7 5.7-4.7 2.6 0 4.1.8 4.9 1.1v2.9h-2c-.3-1.7-1.2-2.7-3.1-2.7s-3 1-3 2.6c0 1.4.6 2.2 2.5 2.6l1.9.5c2.8.7 4.4 2.2 4.4 4.6 0 3.3-2.4 5.1-6.2 5.1-2.9.3-4.5-.6-5.3-1.1z"/></g></svg>